{
    "asset" : {
        "generator" : "Khronos glTF Blender I/O v1.5.17",
        "version" : "2.0"
    },
    "scene" : 4,
    "scenes" : [
        {
            "name" : "Front",
            "nodes" : [
                0
            ]
        },
        {
            "name" : "Left",
            "nodes" : [
                1
            ]
        },
        {
            "name" : "MainScene",
            "nodes" : [
                2,
                3
            ]
        },
        {
            "name" : "Right",
            "nodes" : [
                4
            ]
        },
        {
            "name" : "Shorts",
            "nodes" : [
                5
            ]
        },
        {
            "name" : "Wire",
            "nodes" : [
                6,
                7,
                8
            ]
        }
    ],
    "nodes" : [
        {
            "mesh" : 0,
            "name" : "Cube.001",
            "scale" : [
                0.915955662727356,
                0.915955662727356,
                0.915955662727356
            ],
            "translation" : [
                0,
                0.2003343403339386,
                0
            ]
        },
        {
            "mesh" : 0,
            "name" : "Cube.001",
            "scale" : [
                0.915955662727356,
                0.915955662727356,
                0.915955662727356
            ],
            "translation" : [
                0,
                0.2003343403339386,
                0
            ]
        },
        {
            "mesh" : 0,
            "name" : "Cube.001",
            "scale" : [
                0.915955662727356,
                0.915955662727356,
                0.915955662727356
            ],
            "translation" : [
                0,
                0.2003343403339386,
                0
            ]
        },
        {
            "name" : "Camera wire",
            "rotation" : [
                0.6582788228988647,
                0,
                0,
                0.7527742385864258
            ],
            "translation" : [
                0,
                1.5797910690307617,
                6
            ]
        },
        {
            "mesh" : 0,
            "name" : "Cube.001",
            "scale" : [
                0.915955662727356,
                0.915955662727356,
                0.915955662727356
            ],
            "translation" : [
                0,
                0.2003343403339386,
                0
            ]
        },
        {
            "mesh" : 0,
            "name" : "Cube.001",
            "scale" : [
                0.915955662727356,
                0.915955662727356,
                0.915955662727356
            ],
            "translation" : [
                0,
                0.2003343403339386,
                0
            ]
        },
        {
            "mesh" : 0,
            "name" : "Cube.001",
            "scale" : [
                0.915955662727356,
                0.915955662727356,
                0.915955662727356
            ],
            "translation" : [
                0,
                0.2003343403339386,
                0
            ]
        },
        {
            "name" : "Camera wire.001",
            "rotation" : [
                0.6582788228988647,
                0,
                0,
                0.7527742385864258
            ],
            "translation" : [
                0,
                1.5797910690307617,
                6
            ]
        },
        {
            "mesh" : 1,
            "name" : "Cube",
            "scale" : [
                0.5415701270103455,
                0.5415701270103455,
                0.5415701270103455
            ],
            "translation" : [
                0,
                0.4619104266166687,
                0
            ]
        }
    ],
    "materials" : [
        {
            "doubleSided" : true,
            "name" : "Skin",
            "pbrMetallicRoughness" : {
                "baseColorFactor" : [
                    0.7681512832641602,
                    0.5271152257919312,
                    0.25818297266960144,
                    1
                ],
                "metallicFactor" : 0,
                "roughnessFactor" : 0.800000011920929
            }
        },
        {
            "doubleSided" : true,
            "name" : "Hair",
            "pbrMetallicRoughness" : {
                "baseColorFactor" : [
                    0.38132619857788086,
                    0.24620135128498077,
                    0.1247718334197998,
                    1
                ],
                "metallicFactor" : 0,
                "roughnessFactor" : 0.800000011920929
            }
        },
        {
            "doubleSided" : true,
            "name" : "Face",
            "pbrMetallicRoughness" : {
                "metallicFactor" : 0,
                "roughnessFactor" : 0.800000011920929
            }
        },
        {
            "doubleSided" : true,
            "name" : "Brows",
            "pbrMetallicRoughness" : {
                "baseColorFactor" : [
                    0.3845415413379669,
                    0.1509489119052887,
                    0.04711753875017166,
                    1
                ],
                "metallicFactor" : 0,
                "roughnessFactor" : 0.800000011920929
            }
        },
        {
            "doubleSided" : true,
            "name" : "Pants",
            "pbrMetallicRoughness" : {
                "baseColorFactor" : [
                    0.43264833092689514,
                    0.45271220803260803,
                    0.42550572752952576,
                    1
                ],
                "metallicFactor" : 0,
                "roughnessFactor" : 0.800000011920929
            }
        },
        {
            "doubleSided" : true,
            "name" : "Hoodie",
            "pbrMetallicRoughness" : {
                "baseColorFactor" : [
                    0.01652168296277523,
                    0.05581124126911163,
                    0.01688534952700138,
                    1
                ],
                "metallicFactor" : 0,
                "roughnessFactor" : 0.800000011920929
            }
        },
        {
            "doubleSided" : true,
            "name" : "Boots",
            "pbrMetallicRoughness" : {
                "baseColorFactor" : [
                    0.08896183967590332,
                    0.029210634529590607,
                    0.009218230843544006,
                    1
                ],
                "metallicFactor" : 0,
                "roughnessFactor" : 0.800000011920929
            }
        },
        {
            "doubleSided" : true,
            "name" : "Boots_white",
            "pbrMetallicRoughness" : {
                "baseColorFactor" : [
                    0.4945358335971832,
                    0.4945358335971832,
                    0.4945358335971832,
                    1
                ],
                "metallicFactor" : 0,
                "roughnessFactor" : 0.800000011920929
            }
        },
        {
            "doubleSided" : true,
            "name" : "Boots_black",
            "pbrMetallicRoughness" : {
                "baseColorFactor" : [
                    0.01964123174548149,
                    0.01964123174548149,
                    0.01964123174548149,
                    1
                ],
                "metallicFactor" : 0,
                "roughnessFactor" : 0.800000011920929
            }
        },
        {
            "doubleSided" : true,
            "name" : "Wire",
            "pbrMetallicRoughness" : {}
        }
    ],
    "meshes" : [
        {
            "name" : "Cube.001",
            "primitives" : [
                {
                    "attributes" : {
                        "POSITION" : 0,
                        "NORMAL" : 1,
                        "TEXCOORD_0" : 2
                    },
                    "indices" : 3,
                    "material" : 0
                },
                {
                    "attributes" : {
                        "POSITION" : 4,
                        "NORMAL" : 5,
                        "TEXCOORD_0" : 6
                    },
                    "indices" : 7,
                    "material" : 1
                },
                {
                    "attributes" : {
                        "POSITION" : 8,
                        "NORMAL" : 9,
                        "TEXCOORD_0" : 10
                    },
                    "indices" : 11,
                    "material" : 2
                },
                {
                    "attributes" : {
                        "POSITION" : 12,
                        "NORMAL" : 13,
                        "TEXCOORD_0" : 14
                    },
                    "indices" : 15,
                    "material" : 3
                },
                {
                    "attributes" : {
                        "POSITION" : 16,
                        "NORMAL" : 17,
                        "TEXCOORD_0" : 18
                    },
                    "indices" : 19,
                    "material" : 4
                },
                {
                    "attributes" : {
                        "POSITION" : 20,
                        "NORMAL" : 21,
                        "TEXCOORD_0" : 22
                    },
                    "indices" : 23,
                    "material" : 5
                },
                {
                    "attributes" : {
                        "POSITION" : 24,
                        "NORMAL" : 25,
                        "TEXCOORD_0" : 26
                    },
                    "indices" : 27,
                    "material" : 6
                },
                {
                    "attributes" : {
                        "POSITION" : 28,
                        "NORMAL" : 29,
                        "TEXCOORD_0" : 30
                    },
                    "indices" : 31,
                    "material" : 7
                },
                {
                    "attributes" : {
                        "POSITION" : 32,
                        "NORMAL" : 33,
                        "TEXCOORD_0" : 34
                    },
                    "indices" : 35,
                    "material" : 8
                }
            ]
        },
        {
            "name" : "Cube",
            "primitives" : [
                {
                    "attributes" : {
                        "POSITION" : 36,
                        "NORMAL" : 37,
                        "TEXCOORD_0" : 38
                    },
                    "indices" : 39,
                    "material" : 9
                }
            ]
        }
    ],
    "accessors" : [
        {
            "bufferView" : 0,
            "componentType" : 5126,
            "count" : 234,
            "max" : [
                0.834807813167572,
                1.4485752582550049,
                0.18345385789871216
            ],
            "min" : [
                0,
                0.8116449117660522,
                -0.19715280830860138
            ],
            "type" : "VEC3"
        },
        {
            "bufferView" : 1,
            "componentType" : 5126,
            "count" : 234,
            "type" : "VEC3"
        },
        {
            "bufferView" : 2,
            "componentType" : 5126,
            "count" : 234,
            "type" : "VEC2"
        },
        {
            "bufferView" : 3,
            "componentType" : 5123,
            "count" : 354,
            "type" : "SCALAR"
        },
        {
            "bufferView" : 4,
            "componentType" : 5126,
            "count" : 243,
            "max" : [
                0.19435293972492218,
                1.5876429080963135,
                0.17926344275474548
            ],
            "min" : [
                -4.291534239087014e-08,
                1.363128900527954,
                -0.199540376663208
            ],
            "type" : "VEC3"
        },
        {
            "bufferView" : 5,
            "componentType" : 5126,
            "count" : 243,
            "type" : "VEC3"
        },
        {
            "bufferView" : 6,
            "componentType" : 5126,
            "count" : 243,
            "type" : "VEC2"
        },
        {
            "bufferView" : 7,
            "componentType" : 5123,
            "count" : 375,
            "type" : "SCALAR"
        },
        {
            "bufferView" : 8,
            "componentType" : 5126,
            "count" : 16,
            "max" : [
                0.1526080220937729,
                1.391425371170044,
                0.19715280830860138
            ],
            "min" : [
                0,
                1.1589969396591187,
                0.1307111531496048
            ],
            "type" : "VEC3"
        },
        {
            "bufferView" : 9,
            "componentType" : 5126,
            "count" : 16,
            "type" : "VEC3"
        },
        {
            "bufferView" : 10,
            "componentType" : 5126,
            "count" : 16,
            "type" : "VEC2"
        },
        {
            "bufferView" : 11,
            "componentType" : 5123,
            "count" : 24,
            "type" : "SCALAR"
        },
        {
            "bufferView" : 12,
            "componentType" : 5126,
            "count" : 28,
            "max" : [
                0.14864285290241241,
                1.4102174043655396,
                0.19186173379421234
            ],
            "min" : [
                0,
                1.386043667793274,
                0.14331543445587158
            ],
            "type" : "VEC3"
        },
        {
            "bufferView" : 13,
            "componentType" : 5126,
            "count" : 28,
            "type" : "VEC3"
        },
        {
            "bufferView" : 14,
            "componentType" : 5126,
            "count" : 28,
            "type" : "VEC2"
        },
        {
            "bufferView" : 15,
            "componentType" : 5123,
            "count" : 42,
            "type" : "SCALAR"
        },
        {
            "bufferView" : 16,
            "componentType" : 5126,
            "count" : 192,
            "max" : [
                0.2442699819803238,
                0.6707522869110107,
                0.0347420796751976
            ],
            "min" : [
                -0.015378435142338276,
                -0.15374118089675903,
                -0.23973987996578217
            ],
            "type" : "VEC3"
        },
        {
            "bufferView" : 17,
            "componentType" : 5126,
            "count" : 192,
            "type" : "VEC3"
        },
        {
            "bufferView" : 18,
            "componentType" : 5126,
            "count" : 192,
            "type" : "VEC2"
        },
        {
            "bufferView" : 19,
            "componentType" : 5123,
            "count" : 288,
            "type" : "SCALAR"
        },
        {
            "bufferView" : 20,
            "componentType" : 5126,
            "count" : 408,
            "max" : [
                0.677587628364563,
                1.6218687295913696,
                0.24303115904331207
            ],
            "min" : [
                0,
                0.491614431142807,
                -0.25312313437461853
            ],
            "type" : "VEC3"
        },
        {
            "bufferView" : 21,
            "componentType" : 5126,
            "count" : 408,
            "type" : "VEC3"
        },
        {
            "bufferView" : 22,
            "componentType" : 5126,
            "count" : 408,
            "type" : "VEC2"
        },
        {
            "bufferView" : 23,
            "componentType" : 5123,
            "count" : 612,
            "type" : "SCALAR"
        },
        {
            "bufferView" : 24,
            "componentType" : 5126,
            "count" : 206,
            "max" : [
                0.23097963631153107,
                -0.09012711048126221,
                0.11600606143474579
            ],
            "min" : [
                0.08454949408769608,
                -0.20952101051807404,
                -0.15696237981319427
            ],
            "type" : "VEC3"
        },
        {
            "bufferView" : 25,
            "componentType" : 5126,
            "count" : 206,
            "type" : "VEC3"
        },
        {
            "bufferView" : 26,
            "componentType" : 5126,
            "count" : 206,
            "type" : "VEC2"
        },
        {
            "bufferView" : 27,
            "componentType" : 5123,
            "count" : 318,
            "type" : "SCALAR"
        },
        {
            "bufferView" : 28,
            "componentType" : 5126,
            "count" : 24,
            "max" : [
                0.23097963631153107,
                -0.15051358938217163,
                0.17669135332107544
            ],
            "min" : [
                0.0901755541563034,
                -0.21175003051757812,
                0.10339388996362686
            ],
            "type" : "VEC3"
        },
        {
            "bufferView" : 29,
            "componentType" : 5126,
            "count" : 24,
            "type" : "VEC3"
        },
        {
            "bufferView" : 30,
            "componentType" : 5126,
            "count" : 24,
            "type" : "VEC2"
        },
        {
            "bufferView" : 31,
            "componentType" : 5123,
            "count" : 36,
            "type" : "SCALAR"
        },
        {
            "bufferView" : 32,
            "componentType" : 5126,
            "count" : 239,
            "max" : [
                0.23100560903549194,
                -0.1480444073677063,
                0.1766192764043808
            ],
            "min" : [
                0.0902905985713005,
                -0.22035472095012665,
                -0.15697863698005676
            ],
            "type" : "VEC3"
        },
        {
            "bufferView" : 33,
            "componentType" : 5126,
            "count" : 239,
            "type" : "VEC3"
        },
        {
            "bufferView" : 34,
            "componentType" : 5126,
            "count" : 239,
            "type" : "VEC2"
        },
        {
            "bufferView" : 35,
            "componentType" : 5123,
            "count" : 360,
            "type" : "SCALAR"
        },
        {
            "bufferView" : 36,
            "componentType" : 5126,
            "count" : 24,
            "max" : [
                1,
                1,
                1
            ],
            "min" : [
                -1,
                -1,
                -1
            ],
            "type" : "VEC3"
        },
        {
            "bufferView" : 37,
            "componentType" : 5126,
            "count" : 24,
            "type" : "VEC3"
        },
        {
            "bufferView" : 38,
            "componentType" : 5126,
            "count" : 24,
            "type" : "VEC2"
        },
        {
            "bufferView" : 39,
            "componentType" : 5123,
            "count" : 36,
            "type" : "SCALAR"
        }
    ],
    "bufferViews" : [
        {
            "buffer" : 0,
            "byteLength" : 2808,
            "byteOffset" : 0
        },
        {
            "buffer" : 0,
            "byteLength" : 2808,
            "byteOffset" : 2808
        },
        {
            "buffer" : 0,
            "byteLength" : 1872,
            "byteOffset" : 5616
        },
        {
            "buffer" : 0,
            "byteLength" : 708,
            "byteOffset" : 7488
        },
        {
            "buffer" : 0,
            "byteLength" : 2916,
            "byteOffset" : 8196
        },
        {
            "buffer" : 0,
            "byteLength" : 2916,
            "byteOffset" : 11112
        },
        {
            "buffer" : 0,
            "byteLength" : 1944,
            "byteOffset" : 14028
        },
        {
            "buffer" : 0,
            "byteLength" : 750,
            "byteOffset" : 15972
        },
        {
            "buffer" : 0,
            "byteLength" : 192,
            "byteOffset" : 16724
        },
        {
            "buffer" : 0,
            "byteLength" : 192,
            "byteOffset" : 16916
        },
        {
            "buffer" : 0,
            "byteLength" : 128,
            "byteOffset" : 17108
        },
        {
            "buffer" : 0,
            "byteLength" : 48,
            "byteOffset" : 17236
        },
        {
            "buffer" : 0,
            "byteLength" : 336,
            "byteOffset" : 17284
        },
        {
            "buffer" : 0,
            "byteLength" : 336,
            "byteOffset" : 17620
        },
        {
            "buffer" : 0,
            "byteLength" : 224,
            "byteOffset" : 17956
        },
        {
            "buffer" : 0,
            "byteLength" : 84,
            "byteOffset" : 18180
        },
        {
            "buffer" : 0,
            "byteLength" : 2304,
            "byteOffset" : 18264
        },
        {
            "buffer" : 0,
            "byteLength" : 2304,
            "byteOffset" : 20568
        },
        {
            "buffer" : 0,
            "byteLength" : 1536,
            "byteOffset" : 22872
        },
        {
            "buffer" : 0,
            "byteLength" : 576,
            "byteOffset" : 24408
        },
        {
            "buffer" : 0,
            "byteLength" : 4896,
            "byteOffset" : 24984
        },
        {
            "buffer" : 0,
            "byteLength" : 4896,
            "byteOffset" : 29880
        },
        {
            "buffer" : 0,
            "byteLength" : 3264,
            "byteOffset" : 34776
        },
        {
            "buffer" : 0,
            "byteLength" : 1224,
            "byteOffset" : 38040
        },
        {
            "buffer" : 0,
            "byteLength" : 2472,
            "byteOffset" : 39264
        },
        {
            "buffer" : 0,
            "byteLength" : 2472,
            "byteOffset" : 41736
        },
        {
            "buffer" : 0,
            "byteLength" : 1648,
            "byteOffset" : 44208
        },
        {
            "buffer" : 0,
            "byteLength" : 636,
            "byteOffset" : 45856
        },
        {
            "buffer" : 0,
            "byteLength" : 288,
            "byteOffset" : 46492
        },
        {
            "buffer" : 0,
            "byteLength" : 288,
            "byteOffset" : 46780
        },
        {
            "buffer" : 0,
            "byteLength" : 192,
            "byteOffset" : 47068
        },
        {
            "buffer" : 0,
            "byteLength" : 72,
            "byteOffset" : 47260
        },
        {
            "buffer" : 0,
            "byteLength" : 2868,
            "byteOffset" : 47332
        },
        {
            "buffer" : 0,
            "byteLength" : 2868,
            "byteOffset" : 50200
        },
        {
            "buffer" : 0,
            "byteLength" : 1912,
            "byteOffset" : 53068
        },
        {
            "buffer" : 0,
            "byteLength" : 720,
            "byteOffset" : 54980
        },
        {
            "buffer" : 0,
            "byteLength" : 288,
            "byteOffset" : 55700
        },
        {
            "buffer" : 0,
            "byteLength" : 288,
            "byteOffset" : 55988
        },
        {
            "buffer" : 0,
            "byteLength" : 192,
            "byteOffset" : 56276
        },
        {
            "buffer" : 0,
            "byteLength" : 72,
            "byteOffset" : 56468
        }
    ],
    "buffers" : [
        {
            "byteLength" : 56540,
            "uri" : "data:application/octet-stream;base64,"
        }
    ]
}
