{
    "asset" : {
        "generator" : "Khronos glTF Blender I/O v1.5.17",
        "version" : "2.0"
    },
    "scene" : 0,
    "scenes" : [
        {
            "name" : "Scene",
            "nodes" : [
                0
            ]
        }
    ],
    "nodes" : [
        {
            "mesh" : 0,
            "name" : "scissors",
            "rotation" : [
                0.7071068286895752,
                0,
                0,
                0.7071067094802856
            ],
            "scale" : [
                0.009999999776482582,
                0.009999999776482582,
                0.009999999776482582
            ],
            "translation" : [
                0,
                0,
                0.8540040850639343
            ]
        }
    ],
    "materials" : [
        {
            "doubleSided" : true,
            "name" : "wire_088199225",
            "pbrMetallicRoughness" : {
                "baseColorFactor" : [
                    0,
                    0,
                    0,
                    1
                ],
                "metallicFactor" : 0,
                "roughnessFactor" : 0.5
            }
        },
        {
            "doubleSided" : true,
            "name" : "wire_115115115",
            "pbrMetallicRoughness" : {
                "baseColorFactor" : [
                    0.2653302252292633,
                    0.27741023898124695,
                    0.261028528213501,
                    1
                ],
                "metallicFactor" : 0,
                "roughnessFactor" : 0.5
            }
        },
        {
            "doubleSided" : true,
            "name" : "wire_087225143",
            "pbrMetallicRoughness" : {
                "baseColorFactor" : [
                    0.08583791553974152,
                    0.07932497560977936,
                    0.1004793718457222,
                    1
                ],
                "metallicFactor" : 0,
                "roughnessFactor" : 0.5
            }
        }
    ],
    "meshes" : [
        {
            "name" : "scissors",
            "primitives" : [
                {
                    "attributes" : {
                        "POSITION" : 0,
                        "NORMAL" : 1,
                        "TEXCOORD_0" : 2
                    },
                    "indices" : 3,
                    "material" : 0
                },
                {
                    "attributes" : {
                        "POSITION" : 4,
                        "NORMAL" : 5,
                        "TEXCOORD_0" : 6
                    },
                    "indices" : 7,
                    "material" : 1
                },
                {
                    "attributes" : {
                        "POSITION" : 8,
                        "NORMAL" : 9,
                        "TEXCOORD_0" : 10
                    },
                    "indices" : 11,
                    "material" : 2
                }
            ]
        }
    ],
    "accessors" : [
        {
            "bufferView" : 0,
            "componentType" : 5126,
            "count" : 2450,
            "max" : [
                55.44089889526367,
                18.170400619506836,
                2.0297000408172607
            ],
            "min" : [
                -23.434099197387695,
                -81.44740295410156,
                -0.09960000216960907
            ],
            "type" : "VEC3"
        },
        {
            "bufferView" : 1,
            "componentType" : 5126,
            "count" : 2450,
            "type" : "VEC3"
        },
        {
            "bufferView" : 2,
            "componentType" : 5126,
            "count" : 2450,
            "type" : "VEC2"
        },
        {
            "bufferView" : 3,
            "componentType" : 5123,
            "count" : 13824,
            "type" : "SCALAR"
        },
        {
            "bufferView" : 4,
            "componentType" : 5126,
            "count" : 2016,
            "max" : [
                23.347400665283203,
                -71.13739776611328,
                1.7872999906539917
            ],
            "min" : [
                4.779600143432617,
                -177.65040588378906,
                0.5037000179290771
            ],
            "type" : "VEC3"
        },
        {
            "bufferView" : 5,
            "componentType" : 5126,
            "count" : 2016,
            "type" : "VEC3"
        },
        {
            "bufferView" : 6,
            "componentType" : 5126,
            "count" : 2016,
            "type" : "VEC2"
        },
        {
            "bufferView" : 7,
            "componentType" : 5123,
            "count" : 10368,
            "type" : "SCALAR"
        },
        {
            "bufferView" : 8,
            "componentType" : 5126,
            "count" : 2129,
            "max" : [
                28.22960090637207,
                -68.64119720458984,
                3.0924999713897705
            ],
            "min" : [
                0.45179998874664307,
                -89.77059936523438,
                -0.675599992275238
            ],
            "type" : "VEC3"
        },
        {
            "bufferView" : 9,
            "componentType" : 5126,
            "count" : 2129,
            "type" : "VEC3"
        },
        {
            "bufferView" : 10,
            "componentType" : 5126,
            "count" : 2129,
            "type" : "VEC2"
        },
        {
            "bufferView" : 11,
            "componentType" : 5123,
            "count" : 11520,
            "type" : "SCALAR"
        }
    ],
    "bufferViews" : [
        {
            "buffer" : 0,
            "byteLength" : 29400,
            "byteOffset" : 0
        },
        {
            "buffer" : 0,
            "byteLength" : 29400,
            "byteOffset" : 29400
        },
        {
            "buffer" : 0,
            "byteLength" : 19600,
            "byteOffset" : 58800
        },
        {
            "buffer" : 0,
            "byteLength" : 27648,
            "byteOffset" : 78400
        },
        {
            "buffer" : 0,
            "byteLength" : 24192,
            "byteOffset" : 106048
        },
        {
            "buffer" : 0,
            "byteLength" : 24192,
            "byteOffset" : 130240
        },
        {
            "buffer" : 0,
            "byteLength" : 16128,
            "byteOffset" : 154432
        },
        {
            "buffer" : 0,
            "byteLength" : 20736,
            "byteOffset" : 170560
        },
        {
            "buffer" : 0,
            "byteLength" : 25548,
            "byteOffset" : 191296
        },
        {
            "buffer" : 0,
            "byteLength" : 25548,
            "byteOffset" : 216844
        },
        {
            "buffer" : 0,
            "byteLength" : 17032,
            "byteOffset" : 242392
        },
        {
            "buffer" : 0,
            "byteLength" : 23040,
            "byteOffset" : 259424
        }
    ],
    "buffers" : [
        {
            "byteLength" : 282464,
            "uri" : "data:application/octet-stream;base64,"
        }
    ]
}
